# xmcd
#
# Track frame offsets: 
#        150
#        20783
#        37444
#        52811
#        65132
#        98158
#        121648
#        138669
#        166889
#        185891
#        198497
#        228699
#        257703
#
# Disc length: 3902 seconds
#
# Revision: 0
# Processed by: cddbd v1.5.2PL0 Copyright (c) Steve Scherf et al.
# Submitted via: ExactAudioCopyFreeDBPlugin 1.0
#
DISCID=c60f3c0d
DTITLE=John Littlejohn - Storyville - The Chicago Blues Box 2 - CD5
DYEAR=2017
DGENRE=Blues
TTITLE0=Dust My Broom
TTITLE1=Rob And Steal
TTITLE2=Five Long Years
TTITLE3=Kiddeo
TTITLE4=That's All Right
TTITLE5=I Can't Stay Here
TTITLE6=Bobby's Rock
TTITLE7=Twenty Nine Ways
TTITLE8=So Glad You're Mine
TTITLE9=All I Want
TTITLE10=Dream No.2
TTITLE11=All Your Love
TTITLE12=Sunny Road
EXTD=
EXTT0=
EXTT1=
EXTT2=
EXTT3=
EXTT4=
EXTT5=
EXTT6=
EXTT7=
EXTT8=
EXTT9=
EXTT10=
EXTT11=
EXTT12=
PLAYORDER=
